<!DOCTYPE svg PUBLIC "-//W3C//DTD SVG 1.1//EN" "http://www.w3.org/Graphics/SVG/1.1/DTD/svg11.dtd">
<!-- Uploaded to: SVG Repo, www.svgrepo.com, Transformed by: SVG Repo Mixer Tools -->
<svg height="800px" width="800px" version="1.1" id="Layer_1" xmlns="http://www.w3.org/2000/svg" xmlns:xlink="http://www.w3.org/1999/xlink" viewBox="0 0 511.999 511.999" xml:space="preserve" fill="#000000" stroke="#000000">
<g id="SVGRepo_bgCarrier" stroke-width="0"/>
<g id="SVGRepo_tracerCarrier" stroke-linecap="round" stroke-linejoin="round"/>
<g id="SVGRepo_iconCarrier"> <path style="fill:#d8dcff;" d="M234.73,24.049V487.95c0,9.356,7.957,16.669,17.291,16.027 c129.214-8.878,231.278-116.509,231.278-247.978S381.236,16.901,252.021,8.022C242.687,7.381,234.73,14.693,234.73,24.049z"/> <circle style="opacity:0.08;enable-background:new ;" cx="334.336" cy="361.272" r="54.53"/> <path style="opacity:0.08;enable-background:new ;" d="M271.171,470.629c-12.381,0-24.546-0.919-36.441-2.667v19.987 c0,9.356,7.957,16.669,17.291,16.027c67.426-4.633,127.448-36.165,169.444-83.933C379.725,451.781,327.652,470.629,271.171,470.629z "/> <path style="fill:#7a7eff;" d="M289.83,338.649c0.314-2.069,0.478-4.186,0.478-6.343c0-23.137-18.757-41.893-41.893-41.893 c-4.877,0-9.555,0.842-13.908,2.374c-12.637-21.984-36.356-36.788-63.533-36.788c-32.573,0-60.174,21.269-69.685,50.676 c-40.148,0.345-72.59,32.992-72.59,73.222c0,40.443,32.786,73.23,73.23,73.23h155.055c34.213,0,61.949-27.736,61.949-61.949 C318.932,369.031,307.308,349.601,289.83,338.649z"/> <path style="opacity:0.1;enable-background:new ;" d="M271.088,439.022H116.034c-40.443,0-73.23-32.786-73.23-73.23 c0-10.825,1.093-22.375,3.47-33.485c-10.956,12.799-17.575,29.421-17.575,47.59c0,40.443,32.786,73.23,73.23,73.23h155.055 c20.707,0,39.038-10.162,50.287-25.767C297.09,434.696,284.595,439.022,271.088,439.022z"/> <path d="M351.824,206.158c-4.41,0-7.985,3.574-7.985,7.985c0,7.043-5.729,12.772-12.771,12.772s-12.771-5.73-12.771-12.772 c0-4.411-3.575-7.985-7.985-7.985s-7.985,3.574-7.985,7.985c0,7.043-5.73,12.772-12.772,12.772c-7.043,0-12.771-5.73-12.771-12.772 c0-4.411-3.575-7.985-7.985-7.985s-7.985,3.574-7.985,7.985c0,15.849,12.893,28.742,28.741,28.742 c8.152,0,15.521-3.411,20.757-8.881c5.236,5.47,12.605,8.881,20.756,8.881c15.848,0,28.741-12.893,28.741-28.742 C359.808,209.732,356.233,206.158,351.824,206.158z M406.183,166.328c-4.41,0-7.985,3.574-7.985,7.985v8.816 c0,4.411,3.575,7.985,7.985,7.985s7.985-3.574,7.985-7.985v-8.816C414.167,169.902,410.592,166.328,406.183,166.328z M421.942,80.58 C377.435,33.1,317.284,4.503,252.568,0.056c-6.685-0.458-13.32,1.891-18.201,6.448c-4.844,4.523-7.623,10.918-7.623,17.545v246.172 c-14.893-14.036-34.809-22.207-55.772-22.207c-33.467,0-63.083,20.24-75.372,50.918c-41.78,3.252-74.887,38.456-74.887,80.964 c0,44.783,36.433,81.214,81.214,81.214h124.817v26.838c0,6.628,2.778,13.023,7.623,17.545c4.479,4.182,10.432,6.505,16.549,6.504 c0.549,0,1.102-0.019,1.652-0.056c64.716-4.447,124.867-33.044,169.373-80.523c44.717-47.704,69.343-110.002,69.343-175.421 S466.659,128.283,421.942,80.58z M101.928,445.142c-35.976,0-65.245-29.269-65.245-65.245c0-35.666,29.012-64.931,64.674-65.236 c3.438-0.03,6.471-2.256,7.529-5.528c8.734-27.004,33.685-45.148,62.087-45.148c23.294,0,44.986,12.562,56.61,32.782 c1.918,3.338,5.942,4.831,9.574,3.553c3.622-1.274,7.409-1.922,11.256-1.922c18.697,0,33.908,15.211,33.908,33.91 c0,1.72-0.131,3.45-0.388,5.141c-0.479,3.147,0.957,6.277,3.654,7.967c15.879,9.95,25.357,27.057,25.357,45.762 c0,29.756-24.209,53.965-53.964,53.965H101.928V445.142z M410.291,420.499c-41.738,44.526-98.141,71.344-158.817,75.513 c-2.327,0.152-4.526-0.619-6.208-2.19c-1.645-1.535-2.551-3.621-2.551-5.872v-26.838h14.268c38.562,0,69.933-31.373,69.933-69.935 c0-22.557-10.631-43.316-28.681-56.477c0.038-0.798,0.057-1.597,0.057-2.394c0-27.504-22.375-49.879-49.878-49.879 c-1.912,0-3.814,0.119-5.7,0.335V24.05c0-2.251,0.906-4.336,2.551-5.873c1.683-1.572,3.89-2.349,6.208-2.19 c60.677,4.169,117.08,30.987,158.817,75.513c41.932,44.733,65.024,103.153,65.024,164.499S452.223,375.767,410.291,420.499z"/> </g>
</svg>